<svg width="37" height="23" viewBox="0 0 37 23" fill="none" xmlns="http://www.w3.org/2000/svg">
<rect x="0.375" y="0.375" width="36.25" height="22.25" rx="3.625" fill="white"/>
<path d="M10.7112 7.36364C11.0047 6.99657 11.2038 6.50365 11.1513 6C10.7217 6.02137 10.1975 6.28344 9.8939 6.65078C9.62137 6.96544 9.38016 7.47894 9.44304 7.96148C9.92531 8.00334 10.4071 7.72043 10.7112 7.36364Z" fill="black"/>
<path d="M11.1459 8.05571C10.4455 8.01393 9.85003 8.45321 9.51557 8.45321C9.18092 8.45321 8.66875 8.07673 8.11479 8.08684C7.39378 8.09748 6.72478 8.5051 6.35889 9.1535C5.60634 10.4506 6.1603 12.3746 6.89211 13.431C7.2475 13.9536 7.67581 14.529 8.24016 14.5083C8.77338 14.4874 8.98238 14.1631 9.63053 14.1631C10.2783 14.1631 10.4664 14.5083 11.031 14.4979C11.6163 14.4874 11.9822 13.975 12.3376 13.4519C12.7453 12.8561 12.9122 12.2808 12.9227 12.2493C12.9121 12.2388 11.7939 11.8098 11.7836 10.5236C11.773 9.44652 12.6615 8.93417 12.7034 8.90242C12.2017 8.16036 11.4176 8.07673 11.1459 8.05571Z" fill="black"/>
<path fill-rule="evenodd" clip-rule="evenodd" d="M19.8265 9.1751C19.8265 7.64735 18.7665 6.59811 17.2443 6.59811H14.303V14.4432H15.5207V11.763H17.2062C18.7447 11.763 19.8265 10.7082 19.8265 9.1751ZM16.918 10.7408H15.5207V7.62572H16.9234C17.9781 7.62572 18.5816 8.1911 18.5816 9.18055C18.5816 10.1701 17.9781 10.7408 16.918 10.7408Z" fill="black"/>
<path fill-rule="evenodd" clip-rule="evenodd" d="M22.2704 11.1269C20.9111 11.2031 20.1445 11.8173 20.1445 12.8178C20.1445 13.8453 20.9275 14.5412 22.0474 14.5412C22.7977 14.5412 23.5208 14.1388 23.8524 13.5028H23.8795V14.4433H25.0049V10.5017C25.0049 9.35458 24.1188 8.62061 22.7324 8.62061C21.3188 8.62061 20.4382 9.38176 20.3729 10.4147H21.482C21.5852 9.90361 22.0093 9.57751 22.689 9.57751C23.4065 9.57751 23.836 9.95804 23.836 10.5942V11.0346L22.2704 11.1269ZM23.836 11.85V12.3013C23.836 13.0461 23.1945 13.6115 22.3735 13.6115C21.7429 13.6115 21.3297 13.2853 21.3297 12.7851C21.3297 12.2958 21.7265 11.986 22.4279 11.937L23.836 11.85Z" fill="black"/>
<path d="M26.0675 16.5471V15.5957C26.1542 15.6174 26.3499 15.6174 26.4479 15.6174C26.9916 15.6174 27.2851 15.3891 27.4644 14.802C27.4644 14.7911 27.5678 14.454 27.5678 14.4485L25.502 8.7237H26.774L28.2204 13.3775H28.2419L29.6882 8.7237H30.9278L28.7856 14.7421C28.2965 16.1285 27.7311 16.5743 26.5459 16.5743C26.4479 16.5743 26.1542 16.5634 26.0675 16.5471Z" fill="black"/>
<rect x="0.375" y="0.375" width="36.25" height="22.25" rx="3.625" stroke="black" stroke-width="0.75"/>
</svg>
